<svg width="512" height="512" xmlns="http://www.w3.org/2000/svg">

 <g>
  <title>background</title>
  <rect fill="none" id="canvas_background" height="402" width="582" y="-1" x="-1"/>
 </g>
 <g>
  <title>Layer 1</title>
  <path fill="#7159c1" id="svg_2" d="m512,397.1c0,63.5 -51.5,114.9 -114.9,114.9l-282.2,0c-63.4,0 -114.9,-51.5 -114.9,-114.9l0,-282.2c0,-63.5 51.5,-114.9 114.9,-114.9l282.2,0c63.4,0 114.9,51.4 114.9,114.9l0,282.2z" class="st0"/>
  <polygon fill="#ffffff" id="svg_4" points="198.9,133 116.7,186.7 173.2,232.2 256.3,181.1   " class="st1"/>
  <polygon fill="#ffffff" id="svg_5" points="395.3,186.8 313.3,133.4 256.3,181.1 338.9,232.1   " class="st1"/>
  <polygon fill="#ffffff" id="svg_6" points="256.3,283.2 313.3,331 395.3,277.6 338.9,232.1   " class="st1"/>
  <polygon fill="#ffffff" id="svg_7" points="116.7,277.8 198.9,331 256.3,283.2 173.2,232.2   " class="st1"/>
  <polygon fill="#ffffff" id="svg_8" points="256.3,293.5 199,341.5 174.4,325.6 174.4,343.4 256.3,392.6 338.4,343.3 338.4,325.6 313.8,341.5       " class="st1"/>
 </g>
</svg>